Coordinates
version=1
nRows=14
nColumns=33
inDegrees=yes

Units are S.I. units (second, meters, Newtons, ...)
Angles are in degrees.

endheader
time	ground_thorax_rot_x	ground_thorax_rot_y	ground_thorax_rot_z	ground_thorax_tx	ground_thorax_ty	ground_thorax_tz	clav_prot_r	clav_elev_r	scapula_abduction_r	scapula_elevation_r	scapula_upward_rot_r	scapula_winging_r	shoulder_elv_r	plane_of_elev_r	axial_rot_r	elbow_flexion_r	pro_sup_r	wrist_flex_r	wrist_dev_r	clav_prot_l	clav_elev_l	scapula_abduction_l	scapula_elevation_l	scapula_upward_rot_l	scapula_winging_l	shoulder_elv_l	plane_of_elev_l	axial_rot_l	elbow_flexion_l	pro_sup_l	wrist_flex_l	wrist_dev_l
      7.21000000	    -38.92956273	     -8.46708641	     14.62274358	   -248.46853929	    850.51471280	      3.49795069	      6.01062877	    -45.00000000	     37.37186079	    -45.00000000	    -35.26811613	   2776.68556238	   -466.46121637	    145.98166378	   -119.79688588	   1814.88418060	     45.60982241	     18.00680323	      1.63925482	     14.76321937	     37.16398666	    -37.43640575	    -45.00000000	    -45.00000000	  -3873.54684870	     73.99949974	     22.93435425	    -44.64677981	   1822.45498312	    141.12936544	     -1.06908287	     -9.75114579
      7.22000000	    -38.91166266	     -8.64722869	     14.78032963	   -248.37015879	    850.06569666	      3.45871857	      6.16044924	    -45.00000000	     37.28415445	    -45.00000000	    -35.56582632	   2776.80001831	   -466.47569302	    146.02634943	   -119.56182061	   1814.98712275	     45.48367400	     17.65705957	      2.01128897	     14.46614647	     37.50623725	    -37.25873793	    -45.00000000	    -45.00000000	  -3873.66294226	     74.12223000	     22.84174820	    -44.63267029	   1822.55352280	    141.20342531	     -1.24559811	     -9.95431234
      7.23000000	    -38.88827075	     -8.74862672	     14.83820556	   -248.18530893	    849.61660138	      3.42090723	      6.10485935	    -45.00000000	     37.38112455	    -45.00000000	    -35.57006325	   2776.82690704	   -466.66290488	    146.05188348	   -119.62629376	   1814.68271731	     45.36925678	     17.87810784	      1.73591084	     14.65362052	     37.00775332	    -37.33703518	    -45.00000000	    -45.00000000	  -3873.64240671	     73.85359945	     22.86801377	    -44.64413297	   1822.22591182	    141.24534745	     -1.00003420	     -9.85785948
      7.24000000	    -38.89446841	     -8.72374138	     14.84961543	   -247.91355382	    849.16332129	      3.38676753	      6.15924627	    -45.00000000	     37.22621333	    -45.00000000	    -35.59503679	   2776.85484231	   -466.61291049	    146.08688800	   -119.55406943	   1814.93277751	     45.16164126	     17.73843141	      2.08073588	     14.51900601	     37.60715594	    -37.27999117	    -45.00000000	    -45.00000000	  -3873.80405777	     74.06318838	     22.76370518	    -44.77412657	   1822.51541945	    141.28693812	     -1.15188632	     -9.93900873
      7.25000000	    -38.88818371	     -8.77908656	     14.83162370	   -247.56249698	    848.72132026	      3.35829746	      6.13620050	    -45.00000000	     37.33091830	    -45.00000000	    -35.61253579	   2776.84681889	   -466.68845691	    146.01721458	   -119.52818083	   1814.94291831	     44.92945891	     17.89604757	      1.85962567	     14.66256788	     37.03523664	    -37.26017522	    -45.00000000	    -45.00000000	  -3873.64753123	     73.89532230	     22.93454124	    -44.71627531	   1822.55120469	    141.34640286	     -1.01367423	     -9.85034610
      7.26000000	    -38.87337797	     -8.85439429	     14.94104925	   -247.13951592	    848.29745984	      3.33608175	      6.15490617	    -45.00000000	     37.29077982	    -45.00000000	    -35.54375013	   2776.96101574	   -466.70771595	    146.10489022	   -119.51863356	   1814.90683418	     44.69201121	     17.82846442	      2.15728850	     14.56512772	     37.62768909	    -37.29900324	    -45.00000000	    -45.00000000	  -3873.85946305	     74.05212731	     22.66588358	    -44.78344312	   1822.56943045	    141.38123979	     -1.09243227	     -9.92027442
      7.27000000	    -38.85455436	     -8.86555213	     14.91819366	   -246.65204663	    847.89546241	      3.31971914	      6.14100869	    -45.00000000	     37.32801516	    -45.00000000	    -35.50591258	   2776.92760273	   -466.80785877	    146.05931899	   -119.52922168	   1814.87151661	     44.40562961	     17.92007513	      2.01398839	     14.69547503	     36.99787196	    -37.30388721	    -45.00000000	    -45.00000000	  -3873.67677469	     73.78537638	     22.99597105	    -44.66941009	   1822.50637973	    141.43751988	     -0.95264027	     -9.86367107
      7.28000000	    -38.82889638	     -8.83064607	     15.00234444	   -246.10635447	    847.51573042	      3.30862049	      6.13774183	    -45.00000000	     37.30197871	    -45.00000000	    -35.36103814	   2776.98223130	   -466.79006130	    146.15093876	   -119.51390657	   1814.92584585	     44.09229747	     17.94698762	      2.24184025	     14.63445074	     37.55846780	    -37.32119084	    -45.00000000	    -45.00000000	  -3873.92584577	     74.00674841	     22.80031601	    -44.69550451	   1822.65739106	    141.45566042	     -1.04540236	     -9.88968917
      7.29000000	    -38.80451265	     -8.95935603	     15.03879165	   -245.51469650	    847.16168433	      3.30235038	      6.15339393	    -45.00000000	     37.49439367	    -45.00000000	    -35.29197336	   2777.00209521	   -466.84654467	    146.14794839	   -119.50975495	   1814.82503240	     43.78319161	     17.98991095	      2.20756138	     14.67439036	     37.03369140	    -37.26666282	    -45.00000000	    -45.00000000	  -3873.80163161	     73.86237642	     23.01161148	    -44.51907379	   1822.54172225	    141.50485809	     -0.93878193	     -9.86598317
      7.30000000	    -38.82373607	     -8.81794556	     15.01773468	   -244.87702486	    846.82823245	      3.30086386	      6.17311518	    -45.00000000	     37.31888608	    -45.00000000	    -35.04822499	   2777.08798094	   -466.91000775	    146.16500549	   -119.55813133	   1814.82179371	     43.45566033	     18.03058470	      2.38988711	     14.65625511	     37.66550647	    -37.54297529	    -45.00000000	    -45.00000000	  -3874.04381083	     73.96735902	     22.67079595	    -44.62297322	   1822.62524569	    141.49515936	     -1.06932876	     -9.91871736
      7.31000000	    -38.76438400	     -8.89039163	     15.07557121	   -244.20311933	    846.51733835	      3.30447932	      6.14185484	    -45.00000000	     37.51894423	    -45.00000000	    -34.96865762	   2777.05239140	   -466.92703765	    146.15850935	   -119.52628343	   1814.84914559	     43.04892102	     18.10268756	      2.36636934	     14.64986098	     37.13269926	    -37.31511742	    -45.00000000	    -45.00000000	  -3873.94708258	     73.88518592	     23.05480416	    -44.37769170	   1822.61908909	    141.56163467	     -0.95279614	     -9.85516096
      7.32000000	    -38.74291597	     -9.06424833	     15.16711911	   -243.49279117	    846.22579681	      3.31323660	      6.24662831	    -45.00000000	     37.61610856	    -45.00000000	    -34.75144670	   2777.10264136	   -466.93596144	    146.20721706	   -119.55319060	   1814.85284868	     42.63184490	     18.17233423	      2.50341678	     14.54697253	     37.42617960	    -37.17023647	    -45.00000000	    -45.00000000	  -3874.13081655	     74.08680908	     22.90911624	    -44.26042708	   1822.65440454	    141.61705676	     -1.01357875	     -9.87706886
      7.33000000	    -38.72491130	     -9.03833426	     15.19160705	   -242.73701062	    845.94727791	      3.32650004	      6.30514201	    -45.00000000	     37.74021525	    -45.00000000	    -34.61933329	   2777.06629226	   -466.98463648	    146.21143818	   -119.55088702	   1814.81431107	     42.16478638	     18.22996870	      2.52677867	     14.48693483	     37.14652218	    -37.18606543	    -45.00000000	    -45.00000000	  -3874.11995343	     74.04754262	     23.07969218	    -44.07437240	   1822.65966251	    141.71166306	     -0.97857790	     -9.85043951
      7.34000000	    -38.73794291	     -8.97274248	     15.14996936	   -241.92754393	    845.67556496	      3.34306635	      6.30267864	    -45.00000000	     37.61363120	    -45.00000000	    -34.30960583	   2777.10167826	   -466.99254761	    146.16027835	   -119.56963569	   1814.71334819	     41.58793897	     18.29248480	      2.63114680	     14.49260690	     37.30174777	    -37.45855887	    -45.00000000	    -45.00000000	  -3874.14641889	     73.93682052	     22.97117308	    -43.97303513	   1822.70484290	    141.83224289	     -1.01889311	     -9.85421886
